<svg width="22" height="24" viewBox="0 0 22 24" fill="none" xmlns="http://www.w3.org/2000/svg">
<path opacity="0.5" d="M21.4734 17.3807C21.4734 17.8026 21.3953 18.201 21.2391 18.576C21.0828 18.951 20.8563 19.2908 20.5594 19.5955L16.2234 23.9197L11.8875 19.5955C11.5906 19.2986 11.3641 18.9627 11.2078 18.5877C11.0516 18.2127 10.9734 17.8104 10.9734 17.3807C10.9734 16.951 11.0555 16.5447 11.2195 16.1619C11.3836 15.7791 11.6063 15.4471 11.8875 15.1658C12.1688 14.8846 12.4969 14.658 12.8719 14.4861C13.2469 14.3143 13.657 14.2322 14.1024 14.2401C14.493 14.2401 14.8719 14.3065 15.2391 14.4393C15.6063 14.5721 15.9344 14.7791 16.2234 15.0604C16.5203 14.7869 16.8484 14.5838 17.2078 14.451C17.5672 14.3182 17.9461 14.2479 18.3445 14.2401C18.7742 14.2401 19.1805 14.3221 19.5633 14.4861C19.9461 14.6502 20.2781 14.8729 20.5594 15.1541C20.8406 15.4354 21.0633 15.7713 21.2274 16.1619C21.3914 16.5526 21.4734 16.9588 21.4734 17.3807ZM19.9734 17.3807C19.9734 17.1541 19.9305 16.9432 19.8445 16.7479C19.7586 16.5526 19.6414 16.3768 19.493 16.2205C19.3445 16.0643 19.1727 15.9471 18.9774 15.869C18.782 15.7908 18.5672 15.7479 18.3328 15.7401C17.8875 15.7401 17.5047 15.9002 17.1844 16.2205L16.2234 17.1815L15.2625 16.2205C15.1063 16.0643 14.9305 15.9471 14.7352 15.869C14.5399 15.7908 14.3328 15.7479 14.1141 15.7401C13.8875 15.7401 13.6766 15.783 13.4813 15.869C13.2859 15.9549 13.1102 16.0721 12.9539 16.2205C12.7977 16.369 12.6805 16.5408 12.6024 16.7361C12.5242 16.9315 12.4813 17.1463 12.4734 17.3807C12.4734 17.826 12.6336 18.2088 12.9539 18.5291L16.2234 21.7986L19.493 18.5291C19.8133 18.2088 19.9734 17.826 19.9734 17.3807ZM1.97345 22.4901H12.1336L13.6453 23.9901H0.47345V2.99005H6.47345C6.47345 2.57599 6.55157 2.18927 6.70782 1.8299C6.86407 1.47052 7.07892 1.15021 7.35236 0.868958C7.62579 0.587708 7.9422 0.372864 8.30157 0.224426C8.66095 0.0759888 9.05157 -0.00213623 9.47345 -0.00994873C9.88751 -0.00994873 10.2742 0.0681763 10.6336 0.224426C10.993 0.380676 11.3133 0.59552 11.5945 0.868958C11.8758 1.1424 12.0906 1.4588 12.2391 1.81818C12.3875 2.17755 12.4656 2.56818 12.4734 2.99005H18.4734V12.3768H18.4149C18.3992 12.3768 18.3758 12.3729 18.3445 12.3651C18.1102 12.3651 17.8797 12.3846 17.6531 12.4236C17.4266 12.4627 17.2 12.5135 16.9734 12.576V4.49005H15.4734V7.49005H3.47345V4.49005H1.97345V22.4901ZM4.97345 4.49005V5.99005H13.9734V4.49005H10.9734V2.99005C10.9734 2.67755 10.8914 2.40411 10.7274 2.16974C10.5633 1.93536 10.3406 1.74786 10.0594 1.60724C9.8797 1.52911 9.68439 1.49005 9.47345 1.49005C9.26251 1.49005 9.0672 1.52911 8.88751 1.60724C8.60626 1.74005 8.38361 1.92365 8.21954 2.15802C8.05548 2.3924 7.97345 2.66974 7.97345 2.99005V4.49005H4.97345Z" fill="white"/>
</svg>
